<?xml version="1.0" encoding="UTF-8"?>
<svg width="752pt" height="752pt" version="1.1" viewBox="200 200 352 352" xmlns="http://www.w3.org/2000/svg">
 <g>
  <rect width="752" height="752" fill="transparent"/>
  <path d="m458.88 347.59c-6.5391 0-11.84-5.3008-11.84-11.84v-8.3203c0-0.62891-0.25-1.2305-0.69531-1.6758-0.92188-0.92578-2.4219-0.92578-3.3477 0l-33.676 33.676c-4.625 4.625-12.121 4.625-16.742 0-4.625-4.625-4.625-12.121 0-16.742l33.676-33.676c0.44141-0.44531 0.69141-1.0469 0.69141-1.6758 0-1.3086-1.0586-2.3672-2.3672-2.3672h-8.3242c-6.5352 0-11.836-5.3008-11.836-11.84s5.3008-11.84 11.836-11.84h42.625c6.5391 0 11.84 5.3008 11.84 11.84v42.621c0 6.5391-5.3008 11.84-11.84 11.84zm-165.75 56.82c6.5391 0 11.84 5.3008 11.84 11.84v8.3281c0 0.62891 0.24609 1.2305 0.69141 1.6719 0.92578 0.92578 2.4258 0.92578 3.3477 0l33.684-33.68c4.625-4.625 12.121-4.625 16.742 0h0.003906c4.6211 4.625 4.6211 12.121 0 16.746l-33.684 33.68c-0.44141 0.44531-0.69141 1.0469-0.69141 1.6758 0 1.3086 1.0586 2.3672 2.3672 2.3672h8.3242c6.5391 0 11.84 5.3008 11.84 11.84v0.003906c0 6.5391-5.3008 11.84-11.84 11.84h-42.629c-6.5391 0-11.84-5.3008-11.84-11.84v-42.633c0-6.5391 5.3008-11.84 11.84-11.84z"/>
 </g>
</svg>
