<?xml version="1.0" encoding="UTF-8"?>
<svg width="752pt" height="752pt" version="1.1" viewBox="0 0 752 752" xmlns="http://www.w3.org/2000/svg">
 <g>
  <rect width="752" height="752" fill="transparent"/>
  <path d="m174.96 595.98c5.0273 0.003906 9.8477-1.9883 13.402-5.543l136.63-136.68 2.3203 76.438c0.14844 4.9258 2.2109 9.5977 5.7461 13.027 3.5352 3.4336 8.2695 5.3516 13.199 5.3477h0.56641c5.0273-0.14844 9.7852-2.2891 13.23-5.9492 3.4492-3.6562 5.2969-8.5391 5.1445-13.562l-3.6953-120.24v-1.4688h0.003907c-0.050781-0.63281-0.12891-1.2656-0.23828-1.8945-0.15625-0.625-0.34766-1.2422-0.57031-1.8477 0-0.51953-0.33203-1.0898-0.51953-1.6094-0.29297-0.66406-0.625-1.3125-0.99609-1.9414-0.23828-0.42578-0.42578-0.85156-0.71094-1.2773h0.003907c-1.3711-2.0391-3.125-3.793-5.1641-5.1641l-1.2305-0.66406v0.003906c-0.625-0.38672-1.2734-0.73438-1.9414-1.043l-1.5625-0.51953c-0.62109-0.22656-1.2539-0.41406-1.8945-0.57031-0.62891-0.10938-1.2617-0.19141-1.8945-0.23828h-1.4688l-120.24-3.6953v0.003906c-6.7695-0.20312-13.129 3.2188-16.688 8.9805-3.5625 5.7578-3.7773 12.98-0.57031 18.941 3.207 5.9609 9.3555 9.7617 16.121 9.9648l76.438 2.3203-136.77 136.53c-3.5547 3.5547-5.5547 8.375-5.5547 13.402s1.9961 9.8477 5.5547 13.402c3.5547 3.5508 8.3789 5.5469 13.402 5.543z"/>
  <path d="m563.63 161.61-136.62 136.63-2.3203-76.438-0.003906 0.003907c-0.21094-6.7695-4.0156-12.91-9.9805-16.109-5.9688-3.2031-13.191-2.9766-18.945 0.58984-5.7539 3.5664-9.1719 9.9336-8.957 16.703l3.6953 120.24v1.4688h-0.003906c0.046874 0.63281 0.125 1.2656 0.23828 1.8945 0.15625 0.625 0.34766 1.2383 0.56641 1.8438 0 0.51953 0.33203 1.0898 0.51953 1.6094l0.003906 0.003906c0.29297 0.66406 0.625 1.3125 0.99219 1.9414 0.23828 0.42578 0.42578 0.85156 0.71094 1.2773 1.3711 2.0391 3.125 3.793 5.1641 5.1602 0.42578 0.28516 0.85156 0.47266 1.2773 0.71094 0.61328 0.36719 1.2461 0.69922 1.8945 0.99609 0.51953 0 1.0898 0.37891 1.6094 0.51953 1.1953 0.46875 2.4609 0.74219 3.7422 0.80469h1.4688l120.24 3.6953h0.56641c6.7695 0.10156 13.078-3.4141 16.547-9.2266 3.4727-5.8086 3.582-13.031 0.28516-18.941-3.2969-5.9141-9.4961-9.6172-16.262-9.7188l-76.438-2.3203 136.77-136.58c4.7891-4.7852 6.6602-11.766 4.9062-18.305-1.7539-6.543-6.8594-11.652-13.402-13.402-6.5391-1.7539-13.52 0.11719-18.309 4.9023z"/>
 </g>
</svg>
